<svg width="400" height="400" viewBox="0 0 400 400" fill="none" xmlns="http://www.w3.org/2000/svg">
<path d="M269.663 119.101C269.663 94.3187 249.502 74.157 224.72 74.157C199.938 74.157 179.776 94.3187 179.776 119.101H206.742C206.742 109.188 214.807 101.123 224.72 101.123C234.632 101.123 242.697 109.188 242.697 119.101C242.697 129.013 234.632 137.078 224.72 137.078H35.9547V164.044H224.719C249.501 164.045 269.663 143.883 269.663 119.101Z" fill="#E8F4FC"/>
<path d="M337.079 83.146C309.819 83.146 287.641 105.324 287.641 132.584C287.641 152.41 303.77 168.539 323.595 168.539C343.421 168.539 359.55 152.409 359.55 132.584H332.584C332.584 137.541 328.552 141.573 323.595 141.573C318.637 141.573 314.605 137.541 314.605 132.584C314.605 120.193 324.687 110.112 337.077 110.112C356.903 110.112 373.032 126.242 373.032 146.067C373.032 165.892 356.902 182.022 337.077 182.022H0V208.988H337.079C371.775 208.988 400 180.762 400 146.067C400 111.373 371.774 83.146 337.079 83.146Z" fill="#D1E5F5"/>
<path d="M269.663 226.966H35.9547V253.933H269.663C282.054 253.933 292.134 264.014 292.134 276.405C292.134 288.795 282.053 298.876 269.663 298.876C257.272 298.876 247.191 288.795 247.191 276.405H220.224C220.224 303.665 242.402 325.843 269.663 325.843C296.923 325.843 319.101 303.665 319.101 276.405C319.101 249.144 296.923 226.966 269.663 226.966Z" fill="#B4D8F1"/>
</svg>
